<svg width="65" height="25" viewBox="0 0 65 25" fill="none" xmlns="http://www.w3.org/2000/svg">
<path id="G.Log" d="M14.504 2.624V5.12C13.624 4.336 12.776 3.752 11.96 3.368C11 2.888 10.016 2.648 9.008 2.648C6.976 2.648 5.288 3.488 3.944 5.168C2.664 6.704 2.024 8.544 2.024 10.688C2.024 12.864 2.712 14.752 4.088 16.352C5.384 17.808 6.848 18.536 8.48 18.536C9.776 18.536 10.864 18.12 11.744 17.288C12.704 16.376 13.184 15.176 13.184 13.688V12.248H6.992V10.592H15.104V20H13.448L13.184 17.72C12.624 18.424 12.024 18.976 11.384 19.376C10.392 20 9.304 20.312 8.12 20.312C5.96 20.312 4.08 19.392 2.48 17.552C0.832 15.696 0.00800008 13.424 0.00800008 10.736C0.00800008 7.968 0.864 5.632 2.576 3.728C4.288 1.824 6.424 0.871999 8.984 0.871999C10.104 0.871999 11.2 1.08 12.272 1.496C12.832 1.704 13.576 2.08 14.504 2.624ZM20.2914 20.072C19.9074 20.072 19.5794 19.912 19.3074 19.592C19.0354 19.272 18.8994 18.88 18.8994 18.416C18.8994 17.936 19.0354 17.536 19.3074 17.216C19.5954 16.88 19.9234 16.712 20.2914 16.712C20.6434 16.712 20.9554 16.864 21.2274 17.168C21.5154 17.456 21.6594 17.856 21.6594 18.368C21.6594 18.848 21.5234 19.256 21.2514 19.592C20.9794 19.912 20.6594 20.072 20.2914 20.072ZM26.3808 1.184H28.2768V18.344H37.5648V20H26.3808V1.184ZM45.455 20.312C43.807 20.312 42.359 19.712 41.111 18.512C39.783 17.248 39.119 15.608 39.119 13.592C39.119 11.688 39.703 10.096 40.871 8.816C42.071 7.52 43.551 6.872 45.311 6.872C47.055 6.872 48.527 7.52 49.727 8.816C50.911 10.096 51.503 11.68 51.503 13.568C51.503 15.552 50.863 17.192 49.583 18.488C48.399 19.704 47.023 20.312 45.455 20.312ZM45.287 18.728C46.439 18.728 47.463 18.248 48.359 17.288C49.223 16.312 49.655 15.072 49.655 13.568C49.655 12.016 49.191 10.752 48.263 9.776C47.415 8.88 46.431 8.432 45.311 8.432C44.159 8.432 43.175 8.896 42.359 9.824C41.463 10.848 41.015 12.104 41.015 13.592C41.015 15.096 41.455 16.352 42.335 17.36C43.151 18.272 44.135 18.728 45.287 18.728ZM62.9512 8.6L63.4312 7.16H64.7032V18.776C64.7032 20.776 64.2152 22.296 63.2392 23.336C62.2632 24.376 60.7512 24.896 58.7032 24.896C57.8712 24.896 57.0792 24.744 56.3272 24.44C55.5912 24.152 54.8152 23.696 53.9992 23.072V20.96C54.5112 21.44 55.0152 21.84 55.5112 22.16C56.0072 22.496 56.4952 22.752 56.9752 22.928C57.5352 23.136 58.1112 23.24 58.7032 23.24C59.9672 23.24 60.9512 22.952 61.6552 22.376C62.5192 21.672 62.9512 20.544 62.9512 18.992V17.408C62.3432 18.416 61.5912 19.128 60.6952 19.544C60.0872 19.832 59.4152 19.976 58.6792 19.976C57.0952 19.976 55.7672 19.344 54.6952 18.08C53.6392 16.784 53.1112 15.288 53.1112 13.592C53.1112 11.896 53.6072 10.4 54.5992 9.104C55.7512 7.616 57.2232 6.872 59.0152 6.872C59.9112 6.872 60.7592 7.088 61.5592 7.52C61.7992 7.664 62.0312 7.824 62.2552 8C62.4952 8.176 62.7272 8.376 62.9512 8.6ZM62.9512 13.784V10.256C62.6792 9.952 62.3992 9.696 62.1112 9.488C61.8392 9.28 61.5672 9.096 61.2952 8.936C60.9752 8.76 60.6472 8.632 60.3112 8.552C59.9752 8.472 59.6312 8.432 59.2792 8.432C58.0792 8.432 57.0872 8.856 56.3032 9.704C55.4232 10.664 54.9832 11.928 54.9832 13.496C54.9832 14.92 55.3512 16.096 56.0872 17.024C56.8072 17.936 57.7432 18.392 58.8952 18.392C60.0312 18.392 60.9912 17.952 61.7752 17.072C62.5592 16.224 62.9512 15.128 62.9512 13.784Z" fill="black"/>
</svg>
